<svg width="71" height="70" viewBox="0 0 71 70" fill="none" xmlns="http://www.w3.org/2000/svg">
<path d="M4.57592 30.8023L4.83692 38.8751C4.85174 39.333 5.04786 39.7663 5.38213 40.0797C5.71641 40.393 6.16146 40.5607 6.61938 40.5459L14.6922 40.2849C15.0276 40.2741 15.345 40.1305 15.5745 39.8856C15.804 39.6408 15.9269 39.3148 15.916 38.9794C15.9052 38.6439 15.7616 38.3265 15.5167 38.097C15.2719 37.8675 14.9459 37.7446 14.6105 37.7555L9.11318 37.918C20.3132 26.2064 29.6958 27.5028 34.318 29.341C34.651 29.4734 34.979 29.6168 35.3021 29.7711C34.1411 30.4862 33.0308 31.2807 31.9794 32.1489C28.4955 35.0354 26.4256 38.1903 26.1519 41.0335C25.7358 45.3554 27.2484 48.8988 30.4094 51.0101C32.0329 52.0787 33.9183 52.6818 35.8606 52.7539C37.8036 52.8476 39.7363 52.4196 41.458 51.5143C44.8092 49.7306 46.7406 46.3107 46.7564 42.1309C46.772 38.1235 44.6963 34.0062 41.3785 30.8963C41.041 30.58 40.691 30.2746 40.3285 29.9803C41.7915 29.338 43.3045 28.816 44.8524 28.4196C50.1676 27.0654 60.0862 26.2756 66.7996 36.1973C66.9892 36.4702 67.2787 36.6574 67.6054 36.7183C67.932 36.7791 68.2695 36.7088 68.5447 36.5226C68.8199 36.3363 69.0106 36.0491 69.0754 35.7232C69.1403 35.3973 69.0741 35.059 68.8912 34.7816C67.8902 33.2882 66.7255 31.9114 65.4188 30.6766C63.1193 28.5021 60.3401 26.8994 57.3062 25.9984C53.3323 24.8139 48.8104 24.8046 44.2292 25.9715C42.0548 26.5298 39.9447 27.3143 37.9336 28.312C37.075 27.8036 36.1781 27.3628 35.2511 26.9936C31.1615 25.3676 26.6171 25.1915 22.1094 26.4848C17.0248 27.9435 12.0384 31.2041 7.28132 36.1777L7.10495 30.7204C7.09958 30.5543 7.06154 30.3909 6.99302 30.2395C6.92449 30.0881 6.82682 29.9517 6.70558 29.838C6.58434 29.7244 6.4419 29.6358 6.2864 29.5772C6.1309 29.5186 5.96538 29.4912 5.7993 29.4966C5.63321 29.5019 5.46981 29.54 5.31842 29.6085C5.16703 29.677 5.03063 29.7747 4.91699 29.8959C4.80335 30.0172 4.7147 30.1596 4.6561 30.3151C4.59751 30.4706 4.57012 30.6361 4.57549 30.8022L4.57592 30.8023ZM33.5908 34.0937C34.901 33.0148 36.3076 32.0585 37.7927 31.2369C41.6412 33.9669 44.2461 38.1861 44.231 42.1215C44.2185 45.3887 42.8126 47.9324 40.2716 49.2849C37.6424 50.6841 34.243 50.5333 31.8125 48.91C31.49 48.695 31.1858 48.4539 30.9028 48.1891C29.1778 46.5721 28.3884 44.1613 28.6663 41.2758C28.8724 39.1333 30.6674 36.5157 33.5907 34.0939L33.5908 34.0937Z" fill="#FFC800"/>
</svg>
