<svg width="35" height="17" viewBox="0 0 35 17" fill="none" xmlns="http://www.w3.org/2000/svg">
<path d="M34.681 11.4019L34.1875 6.99857C34.1595 6.74879 34.037 6.51998 33.847 6.36247C33.657 6.20497 33.415 6.13166 33.1743 6.15868L28.9307 6.63517C28.7544 6.65496 28.5934 6.74662 28.4832 6.88999C28.373 7.03336 28.3227 7.21669 28.3432 7.39965C28.3637 7.58261 28.4534 7.75022 28.5925 7.86559C28.7317 7.98097 28.909 8.03467 29.0853 8.01487L31.9757 7.69872C26.5887 14.5656 21.586 14.2446 19.0687 13.4307C18.8873 13.372 18.7081 13.3072 18.531 13.2362C19.1114 12.7972 19.6616 12.3168 20.1775 11.7986C21.8866 10.0763 22.8385 8.26561 22.8573 6.69971C22.8861 4.31931 21.9326 2.44438 20.1734 1.42063C19.2705 0.90344 18.2501 0.65161 17.2232 0.692514C16.1949 0.721603 15.1951 1.03554 14.3275 1.60173C12.6398 2.71558 11.7726 4.66541 11.9485 6.95154C12.117 9.14341 13.3927 11.3089 15.2786 12.8721C15.4704 13.0312 15.6683 13.1837 15.8724 13.3296C15.1296 13.7413 14.3551 14.0893 13.5567 14.37C10.8148 15.3302 5.62163 16.1722 1.64559 11.0247C1.53362 10.8833 1.37277 10.7929 1.19791 10.7732C1.02304 10.7534 0.848244 10.8058 0.711411 10.919C0.574578 11.0322 0.486732 11.1971 0.466914 11.378C0.447096 11.5589 0.496903 11.7412 0.605539 11.8853C1.19901 12.6604 1.87362 13.3651 2.61682 13.9863C3.92477 15.0802 5.46031 15.8416 7.09918 16.2089C9.24602 16.6922 11.6299 16.5103 13.9931 15.6828C15.1146 15.2877 16.1922 14.7715 17.2083 14.1428C17.6833 14.3853 18.1754 14.5892 18.6804 14.7527C20.9076 15.4728 23.3107 15.3812 25.6296 14.4876C28.2453 13.4798 30.7299 11.4907 33.018 8.57458L33.3516 11.5513C33.3617 11.6419 33.389 11.7296 33.4318 11.8096C33.4746 11.8895 33.5321 11.9601 33.601 12.0172C33.6699 12.0743 33.7489 12.1169 33.8334 12.1425C33.918 12.1681 34.0064 12.1763 34.0937 12.1665C34.181 12.1567 34.2655 12.1291 34.3423 12.0854C34.419 12.0417 34.4866 11.9826 34.5412 11.9116C34.5957 11.8406 34.6362 11.7591 34.6602 11.6716C34.6842 11.5842 34.6914 11.4925 34.6812 11.4019L34.681 11.4019ZM19.2424 10.8018C18.5994 11.446 17.9002 12.027 17.1536 12.5377C15.0047 11.204 13.4456 9.00472 13.2801 6.85227C13.1426 5.06529 13.7714 3.61628 15.0512 2.7717C16.3753 1.89791 18.1737 1.8398 19.5264 2.62695C19.7059 2.73115 19.8769 2.85041 20.0377 2.98352C21.0182 3.79636 21.5406 5.08189 21.5214 6.67117C21.5072 7.85115 20.6765 9.35666 19.2424 10.8018L19.2424 10.8018Z" fill="#FFC800"/>
</svg>
