<svg width="270" height="213" viewBox="0 0 270 213" fill="none" xmlns="http://www.w3.org/2000/svg">
<g clip-path="url(#clip0_5_2)">
<path d="M245.771 194.447C240.595 200.015 234.664 204.822 228.153 208.728C228.004 208.82 227.852 208.907 227.7 208.996L217.16 199.623C217.27 199.519 217.393 199.403 217.525 199.276C225.378 191.783 264.367 139.392 266.965 126.634C266.786 127.697 269.309 169.378 245.771 194.447Z" fill="#F0F0F0"/>
<path d="M230.187 210.537C229.988 210.584 229.785 210.629 229.582 210.67L221.674 203.638C221.829 203.583 222.009 203.519 222.216 203.448C225.608 202.24 235.714 198.596 245.77 194.446C256.575 189.984 267.329 184.943 269.642 181.714C269.146 182.464 253.863 205.217 230.187 210.537Z" fill="#F0F0F0"/>
<path d="M245.624 55.7841H244.498V24.7869C244.498 22.4309 244.036 20.098 243.139 17.9214C242.242 15.7448 240.927 13.7671 239.269 12.1011C237.611 10.4352 235.643 9.11374 233.476 8.21216C231.31 7.31057 228.988 6.84653 226.644 6.84653H161.285C158.941 6.84652 156.619 7.31056 154.453 8.21214C152.286 9.11372 150.318 10.4352 148.66 12.1011C147.002 13.767 145.687 15.7447 144.79 17.9214C143.892 20.098 143.431 22.4309 143.431 24.7868V194.84C143.431 197.196 143.892 199.529 144.79 201.705C145.687 203.882 147.002 205.86 148.66 207.526C150.318 209.192 152.286 210.513 154.452 211.415C156.619 212.316 158.94 212.78 161.285 212.78H226.644C228.988 212.78 231.31 212.316 233.476 211.415C235.642 210.513 237.611 209.192 239.269 207.526C240.927 205.86 242.242 203.882 243.139 201.706C244.036 199.529 244.498 197.196 244.498 194.84V77.8484H245.624V55.7841Z" fill="#3F3D56"/>
<path d="M240.698 24.9101V194.716C240.698 196.475 240.353 198.217 239.682 199.843C239.012 201.468 238.03 202.945 236.791 204.189C235.553 205.433 234.083 206.42 232.465 207.092C230.847 207.765 229.113 208.111 227.362 208.111H161.689C159.938 208.111 158.205 207.764 156.587 207.091C154.97 206.418 153.5 205.432 152.262 204.188C151.024 202.944 150.042 201.467 149.372 199.842C148.702 198.217 148.358 196.475 148.358 194.716V24.9101C148.358 23.151 148.702 21.4092 149.372 19.784C150.042 18.1588 151.024 16.6821 152.262 15.4382C153.5 14.1943 154.97 13.2077 156.587 12.5346C158.205 11.8615 159.938 11.5151 161.689 11.5152H169.659C169.267 12.4818 169.119 13.5301 169.225 14.568C169.332 15.6059 169.691 16.6016 170.27 17.4675C170.849 18.3333 171.632 19.0429 172.548 19.5338C173.464 20.0246 174.487 20.2817 175.525 20.2824H212.967C214.006 20.2833 215.03 20.0274 215.947 19.537C216.864 19.0466 217.647 18.3369 218.227 17.4705C218.807 16.6042 219.165 15.6077 219.271 14.5691C219.377 13.5305 219.227 12.4817 218.834 11.5152H227.362C229.113 11.5146 230.847 11.8606 232.465 12.5335C234.083 13.2063 235.553 14.1929 236.791 15.4368C238.03 16.6807 239.012 18.1575 239.682 19.783C240.353 21.4085 240.698 23.1507 240.698 24.9101Z" fill="white"/>
<path d="M220.269 113.15H162.545C161.533 113.149 160.564 112.745 159.849 112.027C159.134 111.308 158.732 110.334 158.731 109.318V107.411C158.732 106.395 159.134 105.421 159.849 104.703C160.564 103.984 161.533 103.58 162.545 103.579H220.269C221.28 103.58 222.25 103.984 222.964 104.703C223.679 105.421 224.082 106.395 224.083 107.411V109.318C224.082 110.334 223.679 111.308 222.964 112.027C222.25 112.745 221.28 113.149 220.269 113.15Z" fill="#F0F0F0"/>
<path d="M220.269 129.592H162.545C161.533 129.59 160.564 129.186 159.849 128.468C159.134 127.75 158.732 126.776 158.731 125.76V123.852C158.732 122.837 159.134 121.863 159.849 121.144C160.564 120.426 161.533 120.022 162.545 120.021H220.269C221.28 120.022 222.25 120.426 222.964 121.144C223.679 121.863 224.082 122.837 224.083 123.852V125.76C224.082 126.776 223.679 127.75 222.964 128.468C222.25 129.186 221.28 129.59 220.269 129.592Z" fill="#F0F0F0"/>
<path d="M223.157 109.473H165.432C164.37 109.472 163.353 109.048 162.602 108.293C161.851 107.539 161.429 106.516 161.428 105.45V103.542C161.429 102.476 161.851 101.453 162.602 100.699C163.353 99.9444 164.37 99.5201 165.432 99.5189H223.157C224.218 99.5201 225.236 99.9444 225.987 100.699C226.737 101.453 227.16 102.476 227.161 103.542V105.45C227.16 106.516 226.737 107.539 225.987 108.293C225.236 109.048 224.218 109.472 223.157 109.473ZM165.432 100.285C164.573 100.286 163.749 100.63 163.141 101.24C162.533 101.851 162.192 102.679 162.191 103.542V105.45C162.192 106.313 162.533 107.141 163.141 107.752C163.749 108.362 164.573 108.706 165.432 108.707H223.157C224.016 108.706 224.84 108.362 225.448 107.752C226.055 107.141 226.397 106.313 226.398 105.45V103.542C226.397 102.679 226.055 101.851 225.448 101.24C224.84 100.63 224.016 100.286 223.157 100.285H165.432Z" fill="#3F3D56"/>
<path d="M223.157 125.914H165.432C164.37 125.913 163.353 125.489 162.602 124.735C161.851 123.98 161.429 122.958 161.428 121.891V119.984C161.429 118.917 161.851 117.894 162.602 117.14C163.353 116.386 164.37 115.962 165.432 115.96H223.157C224.218 115.962 225.236 116.386 225.987 117.14C226.737 117.894 227.16 118.917 227.161 119.984V121.891C227.16 122.958 226.737 123.98 225.987 124.735C225.236 125.489 224.218 125.913 223.157 125.914ZM165.432 116.727C164.573 116.728 163.749 117.071 163.141 117.682C162.533 118.292 162.192 119.12 162.191 119.984V121.891C162.192 122.755 162.533 123.582 163.141 124.193C163.749 124.804 164.573 125.147 165.432 125.148H223.157C224.016 125.147 224.84 124.804 225.448 124.193C226.055 123.582 226.397 122.755 226.398 121.891V119.984C226.397 119.12 226.055 118.292 225.448 117.682C224.84 117.071 224.016 116.728 223.157 116.727H165.432Z" fill="#3F3D56"/>
<path d="M240.698 24.9101V61.8452C234.857 63.3892 228.741 63.5664 222.822 62.363C216.902 61.1597 211.336 58.6079 206.552 54.904C201.768 51.2001 197.893 46.4428 195.226 40.9982C192.558 35.5535 191.17 29.5666 191.166 23.4981C191.166 22.4149 191.21 21.343 191.296 20.2824H212.967C214.006 20.2833 215.03 20.0274 215.947 19.537C216.864 19.0466 217.647 18.3369 218.227 17.4705C218.807 16.6042 219.165 15.6077 219.271 14.5691C219.377 13.5305 219.227 12.4817 218.834 11.5152H227.362C229.113 11.5146 230.847 11.8606 232.465 12.5335C234.083 13.2063 235.553 14.1929 236.791 15.4368C238.03 16.6807 239.012 18.1575 239.682 19.783C240.353 21.4085 240.698 23.1507 240.698 24.9101Z" fill="#F0F0F0"/>
<path d="M181.541 205.804C181.541 206.583 181.512 207.351 181.45 208.111H161.689C159.938 208.111 158.205 207.764 156.587 207.091C154.97 206.418 153.5 205.432 152.262 204.188C151.024 202.944 150.042 201.467 149.372 199.842C148.702 198.217 148.358 196.475 148.358 194.716V176.553C152.5 176.012 156.709 176.364 160.705 177.585C164.701 178.807 168.392 180.871 171.532 183.639C174.672 186.407 177.189 189.815 178.915 193.637C180.641 197.459 181.536 201.607 181.541 205.804Z" fill="#FFC800"/>
<path d="M22.1649 173.935C22.7201 174.18 23.3496 174.194 23.9152 173.974C24.4807 173.754 24.9362 173.317 25.1818 172.76L42.9832 132.221C43.3907 131.293 43.5152 130.265 43.341 129.266C43.1668 128.267 42.7017 127.343 42.0046 126.61C41.3075 125.877 40.4096 125.367 39.4246 125.147C38.4396 124.927 37.4116 125.005 36.4707 125.371C35.3836 125.788 34.4739 126.571 33.8964 127.586C33.8046 127.747 33.7212 127.912 33.6469 128.082L15.8454 168.62C15.7241 168.896 15.6581 169.194 15.6512 169.496C15.6444 169.798 15.6967 170.098 15.8054 170.379C15.914 170.661 16.0767 170.918 16.2843 171.137C16.4919 171.355 16.7402 171.53 17.0152 171.652L22.1649 173.935Z" fill="#FFC800"/>
<path d="M42.2525 148.864L24.6446 144.932L29.0027 133.348C29.7452 130.516 31.473 128.046 33.8727 126.385C36.2725 124.724 39.1853 123.982 42.0829 124.294L42.2525 124.313L42.2525 148.864Z" fill="#2F2E41"/>
<path d="M77.8176 174.515C77.2997 174.514 76.7931 174.362 76.3592 174.078C75.9252 173.794 75.5825 173.39 75.3724 172.914L57.571 132.376C57.0049 131.086 56.9522 129.627 57.4239 128.299C57.8956 126.972 58.8558 125.876 60.1069 125.238C61.3579 124.6 62.8048 124.468 64.1497 124.869C65.4947 125.271 66.6354 126.175 67.3373 127.395C67.4359 127.568 67.5254 127.745 67.6052 127.927L85.4066 168.466C85.6924 169.116 85.7092 169.855 85.4533 170.518C85.1973 171.181 84.6896 171.715 84.0419 172.002L78.7176 174.363L78.7149 174.357C78.4271 174.461 78.1235 174.514 77.8176 174.515Z" fill="#FFC800"/>
<path d="M53.1936 160.594C52.5869 160.595 52.0053 160.837 51.5764 161.268C51.1474 161.699 50.9061 162.283 50.9055 162.893V210.03C50.9061 210.64 51.1474 211.224 51.5764 211.655C52.0053 212.086 52.5869 212.329 53.1936 212.329H58.8222C59.4289 212.329 60.0105 212.086 60.4394 211.655C60.8684 211.224 61.1097 210.64 61.1104 210.03V162.893C61.1097 162.283 60.8684 161.699 60.4394 161.268C60.0105 160.837 59.4289 160.595 58.8222 160.594H53.1936Z" fill="#FFC800"/>
<path d="M42.0609 160.594C41.4543 160.595 40.8727 160.837 40.4437 161.268C40.0147 161.699 39.7734 162.283 39.7728 162.893V210.03C39.7734 210.64 40.0147 211.224 40.4437 211.655C40.8727 212.086 41.4543 212.329 42.0609 212.329H47.6896C48.2963 212.329 48.8779 212.086 49.3068 211.655C49.7358 211.224 49.9771 210.64 49.9777 210.03V162.893C49.9771 162.283 49.7358 161.699 49.3068 161.268C48.8779 160.837 48.2963 160.595 47.6896 160.594H42.0609Z" fill="#FFC800"/>
<path d="M50.2734 111.209C61.0149 111.209 69.7226 102.46 69.7226 91.667C69.7226 80.874 61.0149 72.1246 50.2734 72.1246C39.532 72.1246 30.8243 80.874 30.8243 91.667C30.8243 102.46 39.532 111.209 50.2734 111.209Z" fill="#FFC800"/>
<path d="M56.7458 99.8706C58.0065 99.8354 59.5755 99.7915 60.7843 98.9042C61.1443 98.6292 61.44 98.2784 61.6508 97.8764C61.8616 97.4745 61.9824 97.0311 62.0047 96.5772C62.0266 96.2547 61.9739 95.9315 61.8508 95.6328C61.7277 95.3342 61.5376 95.0681 61.2952 94.8555C60.6639 94.3195 59.742 94.1938 58.7485 94.4871L59.7778 86.9286L59.0222 86.8246L57.8121 95.7106L58.4431 95.4196C59.1746 95.0825 60.1789 94.9109 60.8029 95.4408C60.9561 95.5793 61.0755 95.7515 61.1518 95.9439C61.228 96.1364 61.259 96.3439 61.2425 96.5503C61.224 96.8881 61.1333 97.2179 60.9766 97.5172C60.8199 97.8166 60.6009 98.0786 60.3344 98.2853C59.3937 98.9757 58.143 99.0648 56.7245 99.1046L56.7458 99.8706Z" fill="#2F2E41"/>
<path d="M67.6226 87.5804H63.5148V88.3468H67.6226V87.5804Z" fill="#2F2E41"/>
<path d="M54.6565 87.5804H50.5486V88.3468H54.6565V87.5804Z" fill="#2F2E41"/>
<path d="M69.5447 174.753L62.5445 123.406C62.4695 122.855 62.1985 122.351 61.7817 121.985C61.3649 121.62 60.8305 121.419 60.2774 121.419H54.9936C55.0156 121.292 55.0271 121.164 55.0279 121.036V119.12C55.0279 118.51 54.7868 117.925 54.3577 117.494C53.9286 117.063 53.3466 116.821 52.7397 116.821H48.1635C47.5566 116.821 46.9746 117.063 46.5455 117.494C46.1164 117.925 45.8753 118.51 45.8753 119.12V121.036C45.8761 121.164 45.8876 121.292 45.9096 121.419H40.6257C40.0727 121.419 39.5383 121.62 39.1215 121.985C38.7047 122.351 38.4337 122.855 38.3586 123.406L31.3585 174.753C31.3141 175.078 31.3396 175.409 31.4332 175.723C31.5268 176.038 31.6864 176.329 31.9011 176.576C32.1159 176.823 32.3809 177.022 32.6783 177.158C32.9757 177.293 33.2986 177.364 33.6254 177.364H67.2778C67.6045 177.364 67.9274 177.293 68.2248 177.158C68.5222 177.022 68.7873 176.823 69.002 176.576C69.2168 176.329 69.3763 176.038 69.47 175.723C69.5636 175.409 69.5891 175.078 69.5447 174.753Z" fill="#2F2E41"/>
<path d="M58.6508 148.864V124.313L58.8204 124.294C61.7214 123.982 64.6375 124.726 67.0388 126.392C69.4401 128.057 71.1674 130.532 71.9068 133.368L76.2586 144.932L58.6508 148.864Z" fill="#2F2E41"/>
<path d="M49.294 111.819L35.8415 106.573C33.6417 105.715 31.4297 104.883 29.2416 103.996C28.3043 103.667 27.4409 103.156 26.7012 102.491C26.0571 101.806 25.6182 100.953 25.4346 100.028C24.9681 98.0468 25.0524 95.8804 25.0857 93.8582C25.1115 91.646 25.2927 89.4384 25.6279 87.2518C26.2153 83.1429 27.595 79.1886 29.6894 75.6105C33.4621 69.3908 39.9621 64.7113 47.4388 65.0848C50.9003 65.2577 54.3816 66.5057 56.9534 68.8837C57.2217 69.2058 57.5227 69.4989 57.8515 69.7583C58.0801 69.8444 58.3288 69.8612 58.5668 69.8065C58.8807 69.7863 59.1948 69.7708 59.5091 69.7601C60.5999 69.7139 61.6926 69.7599 62.7756 69.8978C64.7494 70.112 66.6201 70.8925 68.1643 72.146C69.4495 73.2569 70.4953 74.8252 70.6029 76.5679C70.6549 77.368 70.5232 78.1693 70.2181 78.9101C69.913 79.651 69.4426 80.3115 68.8432 80.8407C67.2383 82.1998 64.9484 81.7221 63.0232 81.6196L55.9705 81.2442L52.3971 81.0539C51.6614 81.0148 51.6635 82.1644 52.3971 82.2035L61.8948 82.7091C63.421 82.7903 64.994 82.9895 66.5215 82.8975C67.6952 82.8441 68.8159 82.3911 69.6995 81.6129C70.5064 80.8681 71.1074 79.9259 71.444 78.8782C71.7807 77.8305 71.8414 76.7131 71.6202 75.6348C71.1305 73.283 69.3886 71.3375 67.3465 70.1801C64.5679 68.6053 61.2494 68.4544 58.1403 68.6872L58.5447 68.8556C55.0278 65.0627 49.6406 63.4614 44.5832 64.0218C39.2433 64.6135 34.494 67.6068 31.0816 71.6998C27.2771 76.2634 25.2038 81.9537 24.3978 87.805C23.9784 90.9642 23.8403 94.1547 23.9852 97.3386C23.9792 98.7427 24.2183 100.137 24.6916 101.458C25.2315 102.744 26.2078 103.796 27.4469 104.426C28.8674 105.115 30.3278 105.718 31.8202 106.232L36.7764 108.164L46.5118 111.961L48.9899 112.928C49.6766 113.196 49.9742 112.085 49.294 111.819Z" fill="#2F2E41"/>
<path d="M28.1423 72.7543C26.9732 72.7543 25.8304 72.406 24.8583 71.7534C23.8862 71.1008 23.1286 70.1732 22.6812 69.0879C22.2338 68.0026 22.1168 66.8084 22.3448 65.6563C22.5729 64.5041 23.1359 63.4459 23.9626 62.6152C24.7892 61.7846 25.8425 61.2189 26.9891 60.9897C28.1357 60.7606 29.3242 60.8782 30.4043 61.3277C31.4844 61.7773 32.4076 62.5385 33.0571 63.5152C33.7066 64.492 34.0533 65.6403 34.0533 66.815C34.0515 68.3897 33.4282 69.8993 32.3201 71.0128C31.2119 72.1263 29.7094 72.7526 28.1423 72.7543ZM28.1423 62.0252C27.1995 62.0252 26.2778 62.3061 25.4939 62.8324C24.71 63.3587 24.099 64.1068 23.7382 64.982C23.3774 65.8572 23.283 66.8203 23.4669 67.7494C23.6509 68.6786 24.1049 69.532 24.7715 70.2019C25.4382 70.8718 26.2876 71.3279 27.2123 71.5128C28.137 71.6976 29.0955 71.6027 29.9665 71.2402C30.8376 70.8777 31.5821 70.2637 32.1059 69.4761C32.6297 68.6884 32.9092 67.7623 32.9092 66.815C32.9078 65.5451 32.4051 64.3276 31.5115 63.4297C30.6178 62.5317 29.4061 62.0266 28.1423 62.0252Z" fill="#2F2E41"/>
<path d="M126.953 109.561L114.159 99.729L104.374 112.584L117.168 122.417L126.953 109.561Z" fill="#F0F0F0"/>
<path d="M54.6465 21.7907C56.668 21.7891 58.6617 22.2632 60.4681 23.1749C62.2745 24.0867 63.8433 25.4108 65.0489 27.0412L72.5195 17.2264L50.1039 0L32.9598 22.5232L42.6209 29.9478C43.5877 27.5385 45.2492 25.4746 47.392 24.0211C49.5348 22.5676 52.0611 21.7909 54.6465 21.7907Z" fill="#F0F0F0"/>
<path d="M269.619 213H0.381356C0.280214 213 0.183214 212.96 0.111696 212.888C0.0401782 212.816 0 212.718 0 212.617C0 212.515 0.0401782 212.418 0.111696 212.346C0.183214 212.274 0.280214 212.234 0.381356 212.234H269.619C269.72 212.234 269.817 212.274 269.888 212.346C269.96 212.418 270 212.515 270 212.617C270 212.718 269.96 212.816 269.888 212.888C269.817 212.96 269.72 213 269.619 213Z" fill="#3F3D56"/>
<path d="M203.906 149.418H176.501C175.49 149.417 174.521 149.013 173.806 148.294C173.091 147.576 172.689 146.602 172.688 145.586V143.679C172.689 142.663 173.091 141.689 173.806 140.97C174.521 140.252 175.49 139.848 176.501 139.847H203.906C204.917 139.848 205.887 140.252 206.602 140.97C207.316 141.689 207.719 142.663 207.72 143.679V145.586C207.719 146.602 207.316 147.576 206.602 148.294C205.887 149.013 204.917 149.417 203.906 149.418Z" fill="#FFC800"/>
<path d="M206.794 145.741H179.389C178.327 145.74 177.309 145.315 176.559 144.561C175.808 143.807 175.386 142.784 175.384 141.718V139.81C175.386 138.743 175.808 137.721 176.559 136.967C177.309 136.212 178.327 135.788 179.389 135.787H206.794C207.855 135.788 208.873 136.212 209.624 136.967C210.375 137.721 210.797 138.743 210.798 139.81V141.718C210.797 142.784 210.375 143.807 209.624 144.561C208.873 145.315 207.855 145.74 206.794 145.741ZM179.389 136.553C178.529 136.554 177.705 136.898 177.098 137.508C176.49 138.119 176.148 138.947 176.147 139.81V141.718C176.148 142.581 176.49 143.409 177.098 144.02C177.705 144.63 178.529 144.974 179.389 144.975H206.794C207.653 144.974 208.477 144.63 209.085 144.02C209.693 143.409 210.034 142.581 210.035 141.718V139.81C210.034 138.947 209.693 138.119 209.085 137.508C208.477 136.898 207.653 136.554 206.794 136.553H179.389Z" fill="#3F3D56"/>
</g>
<defs>
<clipPath id="clip0_5_2">
<rect width="270" height="213" fill="white"/>
</clipPath>
</defs>
</svg>
